<?xml version="1.0" encoding="utf-8"?>
<!-- Generator: Adobe Illustrator 19.0.0, SVG Export Plug-In . SVG Version: 6.00 Build 0)  -->
<svg version="1.1" id="Capa_1" xmlns="http://www.w3.org/2000/svg" xmlns:xlink="http://www.w3.org/1999/xlink" x="0px" y="0px"
	 viewBox="-417 178.1 444.9 444.9" style="enable-background:new -417 178.1 444.9 444.9;" xml:space="preserve">
<style type="text/css">
	.st0{fill:#2A2925;}
</style>
<g id="XMLID_476_">
	<path id="XMLID_503_" class="st0" d="M-47.1,367.2c4-4,4-10.4,0-14.3l-15.2-15.2c-3.4-3.4-8.8-4-12.9-1.2l-32,21.8l21.6-32.2
		c2.7-4,2.2-9.4-1.3-12.8l-33-33c-3.1-3.1-7.7-3.8-11.6-2l-5.7,2.8l2.7-6.1c1.7-3.8,0.9-8.4-2.1-11.3l-10.4-10.4c-4-4-10.4-4-14.3,0
		l-80.5,80.5l114.1,114.1L-47.1,367.2z"/>
	<path id="XMLID_1199_" class="st0" d="M-256.7,348.6l-23.3,23.3c-1.9,1.9-3,4.5-3,7.2c0,2.7,1.1,5.3,3,7.2l22.1,22.1
		c4.3,4.3,6.3,10.1,5.7,16.1c-0.7,6-4,11.3-9,14.5c-65,41.4-71,47.5-73,49.5c-14.3,14.3-14.3,37.5,0,51.8
		c14.3,14.3,37.5,14.3,51.8,0c2-2,8.1-8.1,49.5-73c3.2-5.1,8.5-8.4,14.5-9c6-0.7,11.9,1.4,16.1,5.6l22.1,22.1c4,4,10.4,4,14.3,0
		l23.3-23.3L-256.7,348.6z M-297.6,523.9c-5.6,5.6-14.7,5.6-20.3,0c-5.6-5.6-5.6-14.7,0-20.3c5.6-5.6,14.7-5.6,20.3,0
		C-292,509.2-292,518.3-297.6,523.9z"/>
</g>
</svg>
