<?xml version="1.0" encoding="utf-8"?>
<!-- Generator: Adobe Illustrator 19.0.0, SVG Export Plug-In . SVG Version: 6.00 Build 0)  -->
<svg version="1.1" id="Camada_1" xmlns="http://www.w3.org/2000/svg" xmlns:xlink="http://www.w3.org/1999/xlink" x="0px" y="0px"
	 viewBox="-620 381.7 38.3 38.3" style="enable-background:new -620 381.7 38.3 38.3;" xml:space="preserve">
<style type="text/css">
	.st0{fill:#2A2925;}
</style>
<g>
	<path class="st0" d="M-602.2,397.9c-0.7,0-1.3,0.2-1.8,0.5l-7.1-7.1l-1.4,1.4l7.1,7.1c-0.3,0.5-0.5,1.2-0.5,1.9
		c0,1.7,1.2,3.2,2.8,3.6v10h2v-10c1.6-0.4,2.8-1.9,2.8-3.6C-598.5,399.6-600.2,397.9-602.2,397.9z M-602.2,403.4
		c-1,0-1.8-0.8-1.8-1.8c0-1,0.8-1.8,1.8-1.8c1,0,1.8,0.8,1.8,1.8C-600.5,402.6-601.3,403.4-602.2,403.4z"/>
</g>
</svg>
