<?xml version="1.0" encoding="utf-8"?>
<!-- Generator: Adobe Illustrator 23.0.3, SVG Export Plug-In . SVG Version: 6.00 Build 0)  -->
<svg version="1.1" id="Capa_1" xmlns="http://www.w3.org/2000/svg" xmlns:xlink="http://www.w3.org/1999/xlink" x="0px" y="0px"
	 viewBox="0 0 444.89 444.89" style="enable-background:new 0 0 444.89 444.89;" xml:space="preserve">
<g id="XMLID_476_">
	<path id="XMLID_503_" d="M400.31,182.2c4.78-4.78,4.78-12.52,0-17.3l-18.36-18.36c-4.15-4.15-10.67-4.77-15.53-1.47l-38.61,26.24
		l26.08-38.87c3.26-4.85,2.63-11.34-1.51-15.47l-39.83-39.83c-3.68-3.68-9.28-4.63-13.96-2.37l-6.89,3.32l3.3-7.32
		c2.09-4.64,1.09-10.08-2.5-13.68L280,44.58c-4.78-4.78-12.52-4.78-17.3,0l-97.12,97.11l137.61,137.61L400.31,182.2z"/>
	<path id="XMLID_1199_" d="M147.5,159.78l-28.11,28.11c-2.29,2.29-3.58,5.41-3.58,8.65c0,3.24,1.29,6.36,3.58,8.65l26.67,26.67
		c5.14,5.14,7.63,12.23,6.84,19.45c-0.79,7.22-4.77,13.6-10.9,17.52c-78.36,49.95-85.67,57.26-88.07,59.66
		c-17.23,17.23-17.23,45.25,0,62.48c17.24,17.24,45.27,17.21,62.48,0c2.4-2.4,9.71-9.71,59.66-88.07
		c3.9-6.12,10.28-10.09,17.51-10.88c7.25-0.79,14.34,1.69,19.46,6.81l26.67,26.67c4.78,4.78,12.53,4.78,17.3,0l28.11-28.11
		L147.5,159.78z M98.14,371.21c-6.75,6.75-17.7,6.75-24.46,0c-6.75-6.75-6.75-17.7,0-24.46c6.75-6.75,17.7-6.75,24.46,0
		C104.89,353.51,104.89,364.46,98.14,371.21z"/>
</g>
</svg>
