<?xml version="1.0" encoding="utf-8"?>
<!-- Generator: Adobe Illustrator 19.0.0, SVG Export Plug-In . SVG Version: 6.00 Build 0)  -->
<svg version="1.1" id="Layer_1" xmlns="http://www.w3.org/2000/svg" xmlns:xlink="http://www.w3.org/1999/xlink" x="0px" y="0px"
	 viewBox="-49 141 512 512" style="enable-background:new -49 141 512 512;" xml:space="preserve">
<style type="text/css">
	.st0{fill:#F0F0F0;}
	.st1{fill:#D80027;}
	.st2{fill:#0052B4;}
</style>
<circle class="st0" cx="207" cy="397" r="256"/>
<g>
	<path class="st1" d="M195.9,397H463c0-23.1-3.1-45.5-8.8-66.8H195.9V397z"/>
	<path class="st1" d="M195.9,263.4h229.6c-15.7-25.6-35.7-48.2-59.1-66.8H195.9V263.4z"/>
	<path class="st1" d="M207,653c60.2,0,115.6-20.8,159.4-55.7H47.6C91.4,632.2,146.8,653,207,653z"/>
	<path class="st1" d="M-11.4,530.6h436.9c12.6-20.5,22.3-43,28.8-66.8H-40.2C-33.8,487.6-24,510-11.4,530.6z"/>
</g>
<polygon class="st2" points="71.2,271.3 91.2,256.8 72.5,275.5 "/>
<polygon class="st2" points="207,141 92.5,255.5 66.1,255.5 57.8,230 49.5,255.5 22.7,255.5 44.4,271.3 36.1,296.8 57.8,281.1 
	63.1,284.9 -49,397 -49,141 "/>
<path class="st2" d="M203.3,141c-0.6,0-1.2,0-1.9,0h-0.2c-0.5,0-0.9,0-1.4,0c-1.1,0-2.2,0.1-3.3,0.1c-1.1,0-2.2,0.1-3.3,0.1
	c-1,0-1.9,0.1-2.8,0.2c0,0,0,0,0,0c-1.1,0.1-2.1,0.1-3.2,0.2c-0.7,0-1.4,0.1-2.1,0.2c-0.5,0-1.1,0.1-1.7,0.1c-1,0.1-2,0.2-3.1,0.3
	c-1,0.1-2,0.2-3,0.3c-1,0.1-1.9,0.2-2.9,0.3c-0.6,0.1-1.2,0.2-1.8,0.2c-0.2,0-0.5,0-0.7,0.1c-0.8,0.1-1.5,0.2-2.3,0.3
	c-1.7,0.2-3.3,0.5-4.9,0.8c-0.9,0.1-1.8,0.3-2.8,0.5c-0.5,0.1-0.9,0.2-1.4,0.3c-1.5,0.3-3,0.6-4.5,0.9c-0.7,0.2-1.5,0.3-2.2,0.5
	c-0.4,0.1-0.8,0.2-1.1,0.2s-0.7,0.2-1.1,0.2c-1.1,0.2-2.1,0.5-3.1,0.7c-0.7,0.2-1.4,0.3-2.2,0.5c-0.6,0.2-1.3,0.3-1.9,0.5
	c-0.5,0.1-1.1,0.3-1.7,0.4c-1.5,0.4-2.9,0.8-4.4,1.2c-0.7,0.2-1.5,0.4-2.2,0.6c-0.7,0.2-1.5,0.4-2.2,0.6c-1.4,0.4-2.9,0.9-4.3,1.3
	c-1.4,0.5-2.9,0.9-4.3,1.4c-0.6,0.2-1.2,0.4-1.8,0.6c-0.6,0.2-1.2,0.4-1.9,0.6c-0.4,0.1-0.8,0.3-1.2,0.4c-1.2,0.4-2.4,0.9-3.6,1.3
	c-0.7,0.3-1.4,0.5-2,0.8c-0.7,0.3-1.4,0.5-2,0.8c0,0-0.1,0-0.1,0c-0.7,0.3-1.4,0.5-2,0.8c-0.7,0.3-1.3,0.5-2,0.8
	c-0.1,0-0.1,0-0.2,0.1c-1.4,0.6-2.7,1.1-4,1.7c-1,0.5-2.1,0.9-3.1,1.4c-0.5,0.2-1.1,0.5-1.6,0.7c-1.1,0.5-2.1,1-3.2,1.5
	c-0.1,0-0.2,0.1-0.3,0.1c-0.8,0.4-1.5,0.7-2.3,1.1c-0.5,0.3-1.1,0.5-1.6,0.8c-1.3,0.7-2.6,1.3-4,2c-1.2,0.6-2.5,1.3-3.7,2
	c-0.3,0.2-0.6,0.3-0.8,0.5c-0.5,0.3-0.9,0.5-1.4,0.8c-0.5,0.3-0.9,0.5-1.4,0.8c-0.4,0.2-0.7,0.4-1.1,0.6c-0.9,0.5-1.7,1-2.6,1.5
	c-0.3,0.2-0.6,0.3-0.9,0.5c-0.7,0.4-1.3,0.8-2,1.2c0,0-0.1,0.1-0.1,0.1c-0.5,0.3-1,0.6-1.4,0.9c-1.3,0.8-2.5,1.5-3.8,2.3h23.3
	l-21.7,15.8l8.3,25.5l-21.7-15.8l-21.7,15.8l7.2-22c0,0,0,0-0.1,0.1c-1.2,1-2.3,1.9-3.5,2.9c-0.9,0.8-1.8,1.5-2.6,2.3
	c-2.6,2.3-5.2,4.7-7.7,7.1c-1.1,1.1-2.2,2.2-3.3,3.3c-1,1-1.9,1.9-2.9,2.9c-0.9,1-1.9,2-2.8,3c-0.7,0.7-1.4,1.5-2.1,2.2
	c-1.4,1.5-2.7,3-4.1,4.6c-0.7,0.8-1.3,1.5-2,2.3c-0.7,0.8-1.3,1.6-2,2.3c-0.7,0.8-1.3,1.6-1.9,2.4c-1.3,1.6-2.6,3.2-3.8,4.8
	c-1.9,2.5-3.8,5-5.6,7.5c-1.8,2.5-3.6,5.1-5.3,7.7h7.5l-13.8,10c-0.6,1-1.2,2-1.8,3c-1.5,2.6-3,5.3-4.4,8l6.6,20.3l-0.2-0.2
	l-12.1-8.8c0,0,0,0.1,0,0.1c-0.4,0.8-0.7,1.6-1.1,2.4c-0.4,0.8-0.7,1.6-1.1,2.5c-0.5,1-0.9,2-1.3,3.1c-0.5,1-0.9,2.1-1.3,3.1
	c-0.4,1-0.8,2-1.2,3c0,0.1-0.1,0.2-0.1,0.3c-0.4,1-0.8,2-1.2,3c-0.3,0.8-0.6,1.7-1,2.5l7.3,22.4H1.1l-21.7,15.8L-15,363l2.7,8.4
	l-0.2-0.2l-6.2-4.5L-34,355.6l-0.1,0.1l-12.9,9.4c-0.1,0.7-0.2,1.3-0.2,2c-0.1,0.7-0.1,1.3-0.2,2c-0.1,1.3-0.3,2.6-0.4,4
	c-0.1,1.3-0.2,2.6-0.3,4c-0.1,1.3-0.2,2.7-0.3,4c-0.1,1.2-0.1,2.5-0.2,3.7c0,0.3,0,0.7,0,1c0,0.2,0,0.4,0,0.6c0,0.9-0.1,1.8-0.1,2.7
	c0,1-0.1,2.1-0.1,3.1c0,0.1,0,0.3,0,0.4c0,1.5,0,3,0,4.6h256V141C205.8,141,204.5,141,203.3,141z M141.3,181l8.3-25.5l8.3,25.5h26.8
	L163,196.7l8.3,25.5l-21.7-15.8l-21.7,15.8l1-3.2l7.2-22.3L114.5,181H141.3z M171.3,371.4l-21.7-15.8l-21.7,15.8l8.3-25.5
	l-21.7-15.8h26.8l8.3-25.5l8.3,25.5h26.8L163,345.9L171.3,371.4z M171.3,296.8l-21.7-15.8l-21.7,15.8l8.3-25.5l-21.7-15.8h26.8
	l8.3-25.5l8.3,25.5h26.8L163,271.3L171.3,296.8z M79.5,371.4l-21.7-15.8l-21.7,15.8l8.3-25.5l-21.7-15.8h26.8l8.3-25.5l8.3,25.5
	h26.8l-21.7,15.8L79.5,371.4z M91.2,256.8l-20,14.5l1.3,4.1l7,21.4l-16.4-11.9l-5.3-3.8l-21.7,15.8l8.3-25.5l-21.7-15.8h26.8
	l8.3-25.5l8.3,25.5h26.8L91.2,256.8z"/>
<rect x="-49" y="597.3" class="st1" width="256" height="55.7"/>
<rect x="-49" y="463.8" class="st1" width="256" height="66.8"/>
<rect x="-49" y="397" class="st0" width="256" height="66.8"/>
<rect x="-49" y="530.6" class="st0" width="256" height="66.8"/>
<polygon class="st0" points="163,196.7 171.3,222.3 149.6,206.5 127.9,222.3 136.2,196.7 114.5,181 141.3,181 149.6,155.5 
	157.9,181 184.7,181 "/>
<polygon class="st0" points="-12.6,371.2 -12.5,371.4 -18.8,366.8 -34.1,355.7 -34.2,355.6 -47,364.9 -49,366.4 -49,350.2 
	-47.6,345.9 -49,344.9 -49,330.1 -42.5,330.1 -34.2,304.6 -33.1,308 -25.9,330.1 0.9,330.1 -20.8,345.9 -15.2,363.2 "/>
<polygon class="st0" points="-12.6,296.7 -12.5,296.8 -24.7,288 -24.7,288 -34.2,281 -49,291.8 -49,275.6 -47.6,271.3 -49,270.3 
	-49,255.5 -42.5,255.5 -34.2,230 -25.9,255.5 0.9,255.5 -12.6,265.4 -20.8,271.3 -19,276.7 -19,276.7 "/>
<polygon class="st0" points="-20.8,196.7 -12.5,222.3 -34.2,206.5 -49,217.2 -49,201 -47.6,196.7 -49,195.7 -49,181 -42.5,181 
	-34.2,155.5 -25.9,181 0.9,181 "/>
<polygon class="st0" points="71.2,196.7 79.5,222.3 57.8,206.5 36.1,222.3 44.4,196.7 22.7,181 49.5,181 57.8,155.5 66.1,181 
	92.9,181 "/>
<path class="st2" d="M110,302.5V376h79v-73.5H110z M171.3,371.4l-21.7-15.8l-21.7,15.8l8.3-25.5l-21.7-15.8h26.8l8.3-25.5l8.3,25.5
	h26.8L163,345.9L171.3,371.4z"/>
</svg>
