<?xml version="1.0" encoding="utf-8"?>
<!-- Generator: Adobe Illustrator 19.0.0, SVG Export Plug-In . SVG Version: 6.00 Build 0)  -->
<svg version="1.1" id="Layer_1" xmlns="http://www.w3.org/2000/svg" xmlns:xlink="http://www.w3.org/1999/xlink" x="0px" y="0px"
	 viewBox="-49 141 512 512" style="enable-background:new -49 141 512 512;" xml:space="preserve">
<style type="text/css">
	.st0{fill:#6DA544;}
	.st1{fill:#FFDA44;}
	.st2{fill:#F0F0F0;}
	.st3{fill:#0052B4;}
</style>
<rect x="207" y="141" class="st0" width="256" height="512"/>
<circle class="st0" cx="207" cy="397" r="256"/>
<polygon class="st1" points="207,241.2 418.5,397 207,552.8 -4.5,397 "/>
<circle class="st2" cx="207" cy="397" r="89"/>
<g>
	<path class="st3" d="M162.5,391.4c-15.5,0-30.4,2.4-44.5,6.7c0.6,48.6,40.2,87.9,89,87.9c30.2,0,56.8-15,72.9-38
		C252.4,413.6,210,391.4,162.5,391.4z"/>
	<path class="st3" d="M294.4,414.1c1.1-5.5,1.7-11.2,1.7-17.1c0-49.2-39.9-89-89-89c-36.7,0-68.2,22.2-81.8,53.9
		c12.1-2.5,24.5-3.8,37.3-3.8C214.2,358,261,379.5,294.4,414.1z"/>
</g>
</svg>
