<?xml version="1.0" encoding="utf-8"?>
<!-- Generator: Adobe Illustrator 23.0.3, SVG Export Plug-In . SVG Version: 6.00 Build 0)  -->
<svg version="1.1" id="Capa_1" xmlns="http://www.w3.org/2000/svg" xmlns:xlink="http://www.w3.org/1999/xlink" x="0px" y="0px"
	 viewBox="0 0 123 123" style="enable-background:new 0 0 123 123;" xml:space="preserve">
<style type="text/css">
	.st0{fill:#FFFFFF;}
</style>
<g>
	<path class="st0" d="M35.1,34.2c0.6,0,1.2-0.1,1.8-0.4c0.1,0,3.8-1.8,7.3-3.4c-3.2-0.9-5.9-3-7.5-5.7c-1.8,0.9-3.2,1.5-3.4,1.6
		c-2.1,1-3,3.5-2,5.6C32,33.3,33.5,34.2,35.1,34.2z"/>
	<g>
		<path class="st0" d="M81.3,26.5c4,1.9,8.3,3.9,8.4,3.9c0.6,0.3,1.3,0.5,2,0.5c1.8,0,3.4-1,4.2-2.7c1.1-2.3,0.1-5.1-2.2-6.2
			c-0.2-0.1-1.9-0.9-4.1-1.9C87.8,23.1,84.8,25.5,81.3,26.5z"/>
		<circle class="st0" cx="77.5" cy="13" r="13"/>
		<circle class="st0" cx="46.2" cy="13" r="13"/>
		<path class="st0" d="M48.6,27.3l-2.6,2l-2-1.8c-4.3,2-9.6,4.4-9.6,4.5c-0.8,0.4-1.6,0.5-2.4,0.5c-0.9,0-1.8-0.2-2.6-0.7l0,0
			c-5-4-9.2-11-10.7-14c-1.2-2.5-4.2-3.5-6.7-2.3c-2.5,1.2-3.5,4.2-2.3,6.7c0.9,1.8,9,18,21.3,21.8c0.7,0.2,1.4,0.4,2.1,0.5
			c0.1,3.1,0.2,9.1,0.2,11.1c0,5.1,1.1,6.5,1.1,6.5l0,6.2h0.1c0,0.1,0,0.2,0,0.2l0,48.3c0,3.3,2.7,6,6,6c3.3,0,6-2.7,6-6l0-48.3
			c0-0.1,0-0.2,0-0.2h0.9c0,0.1,0,0.2,0,0.2l0,48.3c0,3.3,2.7,6,6,6c3.3,0,6-2.7,6-6l0-48.3c0-0.1,0-0.2,0-0.2h0V63
			c0-0.2,0-0.4,0-0.6c0.6-1.8,1-3.8,1-5.9V31.5c-2.1,0.2-8.6-4.5-9.4-4.9C50.2,26.8,49.2,27.2,48.6,27.3z"/>
		<path class="st0" d="M111,15.9c-2.5-1.2-5.5-0.2-6.7,2.3c-1.4,2.9-5.4,9.6-10.2,13.6c-0.8,0.4-1.7,0.7-2.6,0.7
			c-0.8,0-1.6-0.2-2.4-0.5c-0.1,0-5.3-2.5-9.6-4.5l-2,1.8l-2.6-2.5c-0.5-0.1-1.1-0.2-1.6-0.4c-1.1,0.5-2.4,1.2-3.7,1.9
			c0.1-0.6,0.1-1.2,0-1.7c0.6-0.3,1.2-0.7,1.7-1c-3.1-1.4-5.5-3.8-7-6.9c-0.8,0.5-1.6,1-2.4,1.5c-1.1-0.6-2.2-1.2-3-1.7
			c-1.4,3.1-3.9,5.5-6.9,7c2.5,1.3,8.5,4.6,10.2,5.8c0.4,0.3,0.8,0.4,1.2,0.6v24.4c0,2.1,0.3,4.1,1,5.9c0,0.2,0,0.4,0,0.6v5.5h0
			c0,0.1,0,0.2,0,0.2l0,48.3c0,3.3,2.7,6,6,6c3.3,0,6-2.7,6-6l0-48.3c0-0.1,0-0.2,0-0.2h0.9c0,0.1,0,0.2,0,0.2l0,48.3
			c0,3.3,2.7,6,6,6c3.3,0,6-2.7,6-6l0-48.3c0-0.1,0-0.2,0-0.2h0.1l0-6.2c0,0,1.1-1.4,1.1-6.5c0-2,0.1-7.7,0.2-10.8
			c0.5-0.1,1.1-0.3,1.6-0.4c12.3-3.9,20.5-20,21.3-21.8C114.6,20.2,113.5,17.2,111,15.9z"/>
	</g>
</g>
</svg>
