<?xml version="1.0" encoding="utf-8"?>
<!-- Generator: Adobe Illustrator 23.0.3, SVG Export Plug-In . SVG Version: 6.00 Build 0)  -->
<svg version="1.1" id="Camada_1" xmlns="http://www.w3.org/2000/svg" xmlns:xlink="http://www.w3.org/1999/xlink" x="0px" y="0px"
	 viewBox="0 0 512 512" style="enable-background:new 0 0 512 512;" xml:space="preserve">
<style type="text/css">
	.st0{fill:#FFFFFF;}
</style>
<g id="surface1">
	<path class="st0" d="M460.3,340.7l35-35c22.2-22.2,22.2-58.3,0-80.4c-6.8-6.8-15-11.6-23.7-14.2c7.1-9.7,11-21.4,11-33.6
		c0-15.2-5.9-29.5-16.7-40.2c-10.7-10.7-25-16.7-40.2-16.7c-0.6,0-1.3,0-1.9,0c0.5-15.2-5-30.5-16.6-42.1
		c-11.6-11.6-26.9-17.1-42.1-16.6c0-0.6,0-1.3,0-1.9c0-15.2-5.9-29.5-16.7-40.2c-22.2-22.2-58.3-22.2-80.4,0L256,31.8l-12.1-12.1
		C233.2,8.9,218.9,3,203.7,3c-15.2,0-29.5,5.9-40.2,16.7c-11.6,11.6-17.1,26.9-16.6,42.1c-0.6,0-1.3,0-1.9,0
		c-15.2,0-29.5,5.9-40.2,16.7C93.2,90,87.6,105.3,88.1,120.5c-0.6,0-1.3,0-1.9,0c-15.2,0-29.5,5.9-40.2,16.7
		c-10.7,10.7-16.7,25-16.7,40.2c0,12.3,3.9,23.9,11,33.6c-8.9,2.7-17,7.5-23.7,14.2c-22.1,22.1-22.2,58.1-0.1,80.3
		c0.1,0.1,0.1,0.1,0.2,0.2l35.1,35.1c0,0.1,0.1,0.1,0.1,0.2c2.1,2.1,4.4,4,6.7,5.8L48.2,357c-10.1,10.1-15.2,23.8-14.5,38.7
		C34.5,410,40.6,423.6,51,434l59.3,59.3c11,11,25.5,16.5,39.9,16.5s28.9-5.5,39.9-16.5l27.6-27.6c12.6,2.7,25.4,4.1,38.2,4.1
		c12.8,0,25.6-1.4,38.2-4.1l27.6,27.6c11,11,25.5,16.5,39.9,16.5c14.5,0,28.9-5.5,39.9-16.5L461,434c22-22,24.5-55.3,5.6-74.3
		l-12.6-12.6l6.2-6.2C460.2,340.8,460.3,340.8,460.3,340.7z M185.2,41.4c4.9-4.9,11.5-7.7,18.5-7.7s13.6,2.7,18.5,7.7l47,47
		c10.2,10.2,10.2,26.8,0,37c-4.9,4.9-11.5,7.7-18.5,7.7h0c-7,0-13.6-2.7-18.5-7.7c0,0,0,0,0,0l-47-47c0,0-0.1-0.1-0.1-0.1
		C175,68.1,175,51.5,185.2,41.4z M126.4,137.1c-10.1-10.2-10.1-26.8,0.1-37c4.9-4.9,11.5-7.7,18.5-7.7c7,0,13.6,2.7,18.5,7.7
		c0,0,0,0,0,0c0,0,0,0,0.1,0l46.9,46.9c0,0,0.1,0.1,0.1,0.1l11.7,11.7c4.9,4.9,7.7,11.5,7.7,18.5c0,7-2.7,13.6-7.7,18.5
		c-4.9,4.9-11.5,7.7-18.5,7.7s-13.6-2.7-18.5-7.7c-0.1-0.1-0.1-0.1-0.2-0.2l-11.5-11.5c0,0,0,0,0-0.1L126.4,137.1L126.4,137.1
		C126.4,137.1,126.4,137.1,126.4,137.1z M67.7,158.8c4.9-4.9,11.5-7.7,18.5-7.7s13.6,2.7,18.5,7.7l47,47c10.2,10.2,10.1,26.8,0,37
		c-4.9,4.9-11.5,7.7-18.5,7.7s-13.6-2.7-18.5-7.7c-0.1-0.1-0.1-0.1-0.2-0.2L67.9,196c-0.1-0.1-0.1-0.1-0.1-0.2
		c-4.9-4.9-7.7-11.5-7.7-18.5C60,170.3,62.8,163.8,67.7,158.8z M38.5,284.1c-0.1-0.1-0.1-0.1-0.2-0.2c-10.2-10.2-10.2-26.8,0-37
		c4.9-4.9,11.5-7.7,18.5-7.7s13.6,2.7,18.5,7.7l35.2,35.2c10.2,10.2,10.2,26.8,0,37c-4.9,4.9-11.5,7.7-18.5,7.7h0
		c-1.3,0-2.6-0.1-3.8-0.3c-0.1,0-0.2,0-0.3,0c-5.4-0.8-10.4-3.3-14.3-7.2c0,0-0.1-0.1-0.1-0.1L38.5,284.1z M216.9,434
		c-0.1,0-0.3-0.1-0.4-0.1c-0.3-0.1-0.6-0.1-0.9-0.2c-0.2,0-0.5-0.1-0.7-0.1c-0.3,0-0.5-0.1-0.8-0.1c-0.3,0-0.5,0-0.8,0
		c-0.2,0-0.4,0-0.7,0c-0.3,0-0.6,0-0.9,0c-0.2,0-0.4,0-0.6,0.1c-0.3,0-0.6,0.1-0.8,0.1c-0.2,0-0.4,0.1-0.7,0.1
		c-0.3,0.1-0.5,0.1-0.8,0.2c-0.2,0.1-0.5,0.1-0.7,0.2c-0.2,0.1-0.4,0.2-0.7,0.2c-0.3,0.1-0.5,0.2-0.8,0.3c-0.2,0.1-0.4,0.2-0.6,0.3
		c-0.3,0.1-0.5,0.2-0.7,0.4c-0.2,0.1-0.4,0.2-0.6,0.3c-0.2,0.1-0.4,0.3-0.7,0.4c-0.2,0.2-0.4,0.3-0.6,0.5c-0.2,0.1-0.3,0.3-0.5,0.4
		c-0.3,0.2-0.5,0.4-0.7,0.7c-0.1,0.1-0.2,0.2-0.3,0.3l-33.6,33.6c-10,10-26.4,10-36.4,0l-59.3-59.3c-5-5-8-11.5-8.3-18.2
		c-0.3-6.1,1.6-11.6,5.5-15.4l21.2-21.2c0.3,0,0.6,0,1,0c0,0,0,0,0,0c15.2,0,29.5-5.9,40.2-16.7c16.4-16.4,20.7-40.5,12.7-60.9
		c10.7-2.3,20.5-7.5,28.4-15.4c9-9,14.4-20.4,16-32.1c4.6,1.2,9.3,1.8,14.2,1.8c0,0,0,0,0,0c15.2,0,29.5-5.9,40.2-16.7
		c10.7-10.7,16.7-25,16.7-40.2c0-4.8-0.6-9.6-1.8-14.2c12.1-1.7,23.3-7.3,32.1-16.1c22.2-22.2,22.2-58.3,0-80.4l-13.2-13.2
		l12.1-12.1c10.2-10.2,26.8-10.2,37,0c4.9,4.9,7.7,11.5,7.7,18.5s-2.7,13.6-7.7,18.5c-3,3-4.5,6.9-4.5,10.9c0,3.9,1.5,7.9,4.5,10.9
		c6,6,15.7,6,21.7,0c10.2-10.2,26.8-10.2,37,0c10.2,10.2,10.2,26.8,0,37c-3,3-4.5,6.9-4.5,10.9c0,3.9,1.5,7.9,4.5,10.9
		c6,6,15.7,6,21.7,0c4.9-4.9,11.5-7.7,18.5-7.7c7,0,13.6,2.7,18.5,7.7c4.9,4.9,7.7,11.5,7.7,18.5c0,6.9-2.7,13.4-7.5,18.3
		c-0.1,0.1-0.1,0.1-0.2,0.2l-22,22c-5.5,5.5-6,14.2-1.2,20.3l0.8,1c4.8,6.1,13.3,7.7,20,3.7c10.3-6.1,23.4-4.5,31.9,4
		c10.2,10.2,10.2,26.8,0,37l-35.2,35.2c-0.1,0.1-0.1,0.1-0.2,0.2L362.6,395C324.7,432.9,268.9,447.9,216.9,434z M444.8,381.5
		c6.7,6.7,4.1,21.2-5.6,30.9l-59.3,59.3c-10,10-26.4,10-36.4,0l-16.3-16.3c21.2-9.1,40.7-22.1,57.1-38.6l47.9-47.9L444.8,381.5z"/>
</g>
</svg>
